HIERARCHY
ROOT pelvis
{
  OFFSET 0 100 0
  CHANNELS 6 Xposition Yposition Zposition Zrotation Xrotation Yrotation
  JOINT pelvis_right_femur
  {
    OFFSET -10.78128 -3.44521 -0.5502486
    CHANNELS 3 Zrotation Xrotation Yrotation
    JOINT right_femur_tibia
    {
      OFFSET -0.8047443 -44.0398 -0.1307829
      CHANNELS 3 Zrotation Xrotation Yrotation
      JOINT right_tibia_foot
      {
        OFFSET 3.006224 -47.83518 -5
        CHANNELS 3 Zrotation Xrotation Yrotation
        End Site
        {
          OFFSET 0 -5 15
        }
      }
    }
  }
  JOINT pelvis_left_femur
  {
    OFFSET 10.78128 -3.44521 -0.5502486
    CHANNELS 3 Zrotation Xrotation Yrotation
    JOINT left_femur_tibia
    {
      OFFSET 0.8047443 -44.0398 -0.1307829
      CHANNELS 3 Zrotation Xrotation Yrotation
      JOINT left_tibia_foot
      {
        OFFSET -4.370144 -48.10324 -4.275266
        CHANNELS 3 Zrotation Xrotation Yrotation
        End Site
        {
          OFFSET 0 -5 15
        }
      }
    }
  }
  JOINT pelvis_spine1
  {
    OFFSET 0 6.468898 -3.129235
    CHANNELS 3 Zrotation Xrotation Yrotation
    JOINT spine1
    {
      OFFSET 0 23.15396 4.99043
      CHANNELS 3 Zrotation Xrotation Yrotation
      JOINT spine2
      {
        OFFSET 0 20.79997 -5.064912
        CHANNELS 3 Zrotation Xrotation Yrotation
        JOINT neck
        {
          OFFSET 0 14.38658 9.616178
          CHANNELS 3 Zrotation Xrotation Yrotation
          End Site
          {
            OFFSET 0 20 0
          }
        }
      }
      JOINT right_manubrium
      {
        OFFSET -5.722621 16.35077 3.967754
        CHANNELS 3 Zrotation Xrotation Yrotation
        JOINT right_clavicle
        {
          OFFSET -13.16364 1.694482 -4.693211
          CHANNELS 3 Zrotation Xrotation Yrotation
          JOINT right_humerus
          {
            OFFSET -28.5034 -0.3100689 -2.792744
            CHANNELS 3 Zrotation Xrotation Yrotation
            JOINT right_radius
            {
              OFFSET -25.15693 0.02248979 -1.271978
              CHANNELS 3 Zrotation Xrotation Yrotation
              End Site
              {
                OFFSET -15 0 0
              }
            }
          }
        }
      }
      JOINT left_manubrium
      {
        OFFSET 5.722621 16.35077 3.967754
        CHANNELS 3 Zrotation Xrotation Yrotation
        JOINT left_clavicle
        {
          OFFSET 13.16364 1.694482 -4.693211
          CHANNELS 3 Zrotation Xrotation Yrotation
          JOINT left_humerus
          {
            OFFSET 29.39168 -1.063119 -2.237045
            CHANNELS 3 Zrotation Xrotation Yrotation
            JOINT left_radius
            {
              OFFSET 24.59957 -0.9528479 0.9047498
              CHANNELS 3 Zrotation Xrotation Yrotation
              End Site
              {
                OFFSET 15 -0 -0
              }
            }
          }
        }
      }
    }
  }
}
MOTION
Frames: 15
Frame Time: 0.0416666666667
-167.6523 114.9877 475.4938 -9.62774 -3.932962 -68.56724 4.919437 -9.128065 -4.211211 -0 12.00469 -0 -8.095269 3.8407 -0.8418099 -1.693654 3.096302 -6.273575 -0 26.44965 -0 8.329281 -10.64316 20.23507 -1.183673 -5.539978 4.382809 1.619101 18.62229 -8.43509 1.897888 23.49787 3.553055 2.502971 -17.23726 5.068497 0.1717945 -22.27891 15.34952 91.396 10.12895 -20.66349 -0 0 10.99926 -29.71372 16.24449 11.90894 7.507788 -29.78413 -9.227078 -90.71303 8.172183 15.59023 0 0 -12.23238 26.17549 22.4112 -20.07244
-172.056 114.9647 477.3072 -9.689288 -3.777505 -69.48272 4.919433 -9.128091 -4.211216 -0 12.00468 -0 -8.095275 3.8407 -0.8418067 -1.693661 3.096323 -6.273581 -0 26.44965 -0 8.329265 -10.64318 20.23507 -1.183674 -5.539971 4.382805 1.619101 18.62228 -8.435088 1.897888 23.49788 3.553061 2.502973 -17.23727 5.068503 0.171788 -22.2789 15.34951 91.39601 10.12896 -20.66349 -0 0 10.99924 -29.71371 16.24448 11.90892 7.507792 -29.78413 -9.227071 -90.71303 8.172202 15.59022 0 0 -12.2324 26.17548 22.41119 -20.07242
-176.4884 114.9416 479.0492 -9.74833 -3.621088 -70.39787 4.91943 -9.128114 -4.211222 -0 12.00466 -0 -8.095281 3.840702 -0.8418036 -1.693667 3.096344 -6.273586 -0 26.44966 -0 8.329247 -10.6432 20.23506 -1.183673 -5.539964 4.382801 1.6191 18.62227 -8.435086 1.897887 23.49788 3.553066 2.502974 -17.23728 5.068509 0.17178 -22.27889 15.3495 91.39602 10.12896 -20.6635 -0 0 10.99923 -29.7137 16.24446 11.90891 7.507796 -29.78413 -9.227066 -90.71303 8.172221 15.5902 0 0 -12.23241 26.17547 22.41119 -20.07241
-180.9485 114.9186 480.7192 -9.804854 -3.463751 -71.3127 4.919428 -9.128134 -4.21123 -0 12.00465 -0 -8.095288 3.840706 -0.8418008 -1.693673 3.096363 -6.273588 -0 26.44967 -0 8.329229 -10.64321 20.23506 -1.183672 -5.539958 4.382797 1.6191 18.62225 -8.435085 1.897887 23.49789 3.553071 2.502975 -17.23728 5.068514 0.1717709 -22.27887 15.34949 91.39603 10.12896 -20.66351 -0 0 10.99921 -29.71369 16.24445 11.90891 7.507799 -29.78412 -9.227062 -90.71302 8.172239 15.59019 0 0 -12.23242 26.17545 22.41119 -20.07239
-185.4349 114.8956 482.3169 -9.858847 -3.305534 -72.22722 4.919426 -9.12815 -4.211238 -0 12.00464 -0 -8.095295 3.840712 -0.8417983 -1.693677 3.096381 -6.273589 -0 26.44968 -0 8.329211 -10.64323 20.23505 -1.183671 -5.539953 4.382793 1.619099 18.62225 -8.435083 1.897887 23.49789 3.553075 2.502976 -17.23728 5.068518 0.1717608 -22.27887 15.34949 91.39603 10.12896 -20.66351 -0 0 10.9992 -29.71368 16.24444 11.9089 7.507802 -29.78412 -9.22706 -90.71302 8.172255 15.59017 0 0 -12.23243 26.17544 22.41119 -20.07238
-189.9466 114.8726 483.8418 -9.910297 -3.146478 -73.14145 4.919425 -9.128162 -4.211247 -0 12.00462 -0 -8.095303 3.840719 -0.8417962 -1.69368 3.096397 -6.273589 -0 26.4497 -0 8.329193 -10.64324 20.23504 -1.183669 -5.539948 4.382789 1.619098 18.62224 -8.435081 1.897888 23.49789 3.553078 2.502977 -17.23729 5.068521 0.1717502 -22.27886 15.34948 91.39604 10.12895 -20.66352 -0 0 10.99919 -29.71368 16.24443 11.90889 7.507804 -29.78412 -9.227059 -90.71302 8.172269 15.59016 0 0 -12.23244 26.17543 22.41119 -20.07236
-194.4824 114.8496 485.2936 -9.959194 -2.986623 -74.0554 4.919425 -9.12817 -4.211256 -0 12.00461 -0 -8.09531 3.840728 -0.8417944 -1.693682 3.096411 -6.273586 -0 26.44972 -0 8.329176 -10.64325 20.23504 -1.183667 -5.539944 4.382785 1.619097 18.62223 -8.435079 1.897888 23.4979 3.553081 2.502978 -17.23729 5.068523 0.1717392 -22.27885 15.34948 91.39606 10.12894 -20.66353 -0 0 10.99918 -29.71368 16.24442 11.90889 7.507806 -29.78412 -9.22706 -90.71301 8.172281 15.59015 0 0 -12.23245 26.17542 22.41119 -20.07235
-199.041 114.8266 486.6719 -10.00553 -2.82601 -74.96909 4.919425 -9.128174 -4.211266 -0 12.00459 -0 -8.095317 3.840737 -0.841793 -1.693683 3.096422 -6.273583 -0 26.44975 -0 8.32916 -10.64326 20.23503 -1.183664 -5.539941 4.382782 1.619095 18.62223 -8.435078 1.897889 23.4979 3.553082 2.502978 -17.23729 5.068525 0.1717283 -22.27884 15.34947 91.39607 10.12893 -20.66353 -0 0 10.99917 -29.71368 16.24441 11.90888 7.507806 -29.78412 -9.227062 -90.71301 8.17229 15.59014 0 0 -12.23246 26.17541 22.4112 -20.07234
-203.6214 114.8036 487.9762 -10.04928 -2.664679 -75.88252 4.919426 -9.128174 -4.211275 -0 12.00458 -0 -8.095324 3.840747 -0.8417921 -1.693683 3.09643 -6.273578 -0 26.44977 -0 8.329146 -10.64326 20.23502 -1.183662 -5.539939 4.382779 1.619094 18.62223 -8.435077 1.897889 23.49791 3.553082 2.502978 -17.23728 5.068525 0.1717176 -22.27884 15.34947 91.39608 10.12891 -20.66353 -0 0 10.99916 -29.71368 16.24441 11.90888 7.507807 -29.78413 -9.227065 -90.71301 8.172297 15.59014 0 0 -12.23246 26.1754 22.4112 -20.07233
-208.2222 114.7806 489.2063 -10.09046 -2.502673 -76.79571 4.919427 -9.12817 -4.211284 -0 12.00456 -0 -8.09533 3.840758 -0.8417916 -1.693682 3.096436 -6.273572 -0 26.44979 -0 8.329134 -10.64326 20.23502 -1.183659 -5.539938 4.382777 1.619092 18.62223 -8.435076 1.89789 23.49791 3.553082 2.502978 -17.23728 5.068525 0.1717075 -22.27884 15.34947 91.39609 10.12889 -20.66354 -0 0 10.99915 -29.71369 16.24441 11.90888 7.507806 -29.78413 -9.227069 -90.71301 8.172302 15.59013 0 0 -12.23246 26.17539 22.41121 -20.07232
-212.8424 114.7576 490.3619 -10.12904 -2.340032 -77.70868 4.919429 -9.128163 -4.211293 -0 12.00455 -0 -8.095335 3.840768 -0.8417916 -1.693679 3.096439 -6.273565 -0 26.44982 -0 8.329123 -10.64326 20.23501 -1.183656 -5.539937 4.382776 1.61909 18.62223 -8.435075 1.897891 23.49791 3.553081 2.502978 -17.23728 5.068524 0.1716981 -22.27884 15.34947 91.3961 10.12887 -20.66354 -0 0 10.99915 -29.7137 16.24441 11.90888 7.507805 -29.78413 -9.227074 -90.71301 8.172303 15.59013 0 0 -12.23246 26.17539 22.41121 -20.07232
-217.4806 114.7346 491.4426 -10.16502 -2.176798 -78.62143 4.919431 -9.128152 -4.2113 -0 12.00454 -0 -8.095339 3.840779 -0.8417919 -1.693676 3.09644 -6.273558 -0 26.44984 -0 8.329115 -10.64326 20.23501 -1.183653 -5.539938 4.382774 1.619089 18.62223 -8.435075 1.897892 23.49792 3.553079 2.502977 -17.23727 5.068522 0.1716897 -22.27884 15.34946 91.3961 10.12886 -20.66354 -0 0 10.99914 -29.71371 16.24441 11.90889 7.507804 -29.78413 -9.22708 -90.71301 8.172302 15.59013 0 0 -12.23246 26.17539 22.41122 -20.07232
-222.1357 114.7116 492.4482 -10.19839 -2.013011 -79.53399 4.919433 -9.128139 -4.211307 -0 12.00453 -0 -8.095343 3.840789 -0.8417927 -1.693673 3.096437 -6.27355 -0 26.44987 -0 8.329109 -10.64325 20.235 -1.18365 -5.539939 4.382774 1.619087 18.62224 -8.435074 1.897893 23.49792 3.553076 2.502977 -17.23727 5.068519 0.1716825 -22.27884 15.34947 91.39611 10.12884 -20.66354 -0 0 10.99914 -29.71373 16.24441 11.90889 7.507802 -29.78414 -9.227087 -90.71301 8.172299 15.59013 0 0 -12.23246 26.17539 22.41123 -20.07232
-226.8064 114.6886 493.3783 -10.22914 -1.848714 -80.44637 4.919436 -9.128123 -4.211313 -0 12.00453 -0 -8.095346 3.840798 -0.8417937 -1.693668 3.096432 -6.273542 -0 26.44989 -0 8.329106 -10.64325 20.235 -1.183647 -5.539941 4.382774 1.619085 18.62224 -8.435074 1.897894 23.49792 3.553073 2.502976 -17.23726 5.068516 0.1716765 -22.27885 15.34947 91.39612 10.12882 -20.66354 -0 0 10.99914 -29.71374 16.24441 11.9089 7.5078 -29.78414 -9.227094 -90.71301 8.172294 15.59013 0 0 -12.23245 26.17539 22.41123 -20.07232
-231.4916 114.6656 494.2328 -10.25727 -1.683948 -81.35857 4.919439 -9.128106 -4.211317 -0 12.00452 -0 -8.095347 3.840806 -0.8417951 -1.693663 3.096425 -6.273533 -0 26.44991 -0 8.329105 -10.64324 20.235 -1.183645 -5.539944 4.382774 1.619084 18.62225 -8.435074 1.897895 23.49792 3.553069 2.502975 -17.23725 5.068513 0.1716719 -22.27885 15.34947 91.39612 10.1288 -20.66354 -0 0 10.99914 -29.71375 16.24442 11.9089 7.507797 -29.78414 -9.227101 -90.71302 8.172286 15.59014 0 0 -12.23245 26.17539 22.41124 -20.07233
